<?xml version="1.0" encoding="utf-8"?>
<svg id="master-artboard" viewBox="0 0 500 500" version="1.1" xmlns="http://www.w3.org/2000/svg" x="0px" y="0px" style="enable-background:new 0 0 1400 980;" width="500px" height="500px"><defs><style id="ee-google-fonts">@import url(https://fonts.googleapis.com/css?family=Allerta+Stencil:400);</style></defs><rect id="ee-background" x="0" y="0" width="500" height="500" style="fill: white; fill-opacity: 0; pointer-events: none;"/><g transform="matrix(3.4601628536855684, 0.8497587837905841, -0.8497587837905841, 3.4601628536855684, -970.3398253471457, -2564.23416588981)"><path d="M 562.5999755859375 646.9000244140625 L 545.5999755859375 629.9000244140625 L 518.7000122070312 656.7000122070312 L 491.8999938964844 629.9000244140625 L 474.8999938964844 646.9000244140625 L 501.70001220703125 673.7999877929688 L 474.8999938964844 700.5999755859375 L 491.8999938964844 717.5999755859375 L 518.7000122070312 690.7999877929688 L 545.5999755859375 717.5999755859375 L 562.5999755859375 700.5999755859375 L 535.7999877929688 673.7999877929688 Z" class="st0" style="fill: rgb(255, 193, 7);" transform="matrix(1, 0, 0, 1, 0, 0)"/></g><g transform="matrix(0.8151594996452332, -0.25181463360786444, 0.25181463360786444, 0.8151594996452332, -368.98986173629476, -598.7684904098219)"><g transform="matrix(1, 0, 0, 1, 0, 0)">
	<path class="st0" d="M493.9,1456.9l-21.2-21.2l26.9-26.9l-26.9-26.9l21.2-21.2l26.9,26.9l26.9-26.9l21.2,21.2l-26.9,26.9l26.9,26.9&#10;&#9;&#9;l-21.2,21.2l-26.9-26.9L493.9,1456.9z M520.7,1421.5l26.9,26.9l12.8-12.8l-26.9-26.9l26.9-26.9l-12.8-12.8l-26.9,26.9l-26.9-26.9&#10;&#9;&#9;l-12.8,12.8l26.9,26.9l-26.9,26.9l12.8,12.8L520.7,1421.5z" style="fill: rgb(33, 150, 243);"/>
</g></g><g transform="matrix(1.0769667625427246, -0.5136350989341736, 0.5136350989341736, 1.0769667625427246, -516.3662425608532, -208.7954072573853)"><path d="M 239 626.2000122070312 L 250.60000610351562 662 L 288.20001220703125 662 L 257.79998779296875 684.0999755859375 L 269.3999938964844 719.9000244140625 L 239 697.7999877929688 L 208.60000610351562 719.9000244140625 L 220.1999969482422 684.0999755859375 L 189.8000030517578 662 L 227.39999389648438 662 Z" class="st0" style="fill: rgb(76, 175, 80);" transform="matrix(1, 0, 0, 1, 0, 0)"/></g><path d="M 137.4010772705078 262.4891357421875 L 139.20108032226562 262.4891357421875 L 139.20108032226562 264.7191467285156 L 137.4010772705078 264.7191467285156 L 137.4010772705078 268.7491455078125 L 134.54107666015625 268.7491455078125 L 134.54107666015625 251.47914123535156 L 137.4010772705078 251.47914123535156 L 137.4010772705078 262.4891357421875 M 127.06108093261719 264.7191467285156 L 127.06108093261719 262.4891357421875 L 133.58108520507812 252.879150390625 L 133.58108520507812 256.2291564941406 L 129.57107543945312 262.4891357421875 L 133.58108520507812 262.4891357421875 L 133.58108520507812 264.7191467285156 L 127.06108093261719 264.7191467285156 ZM 149.13526916503906 253.51914978027344 C 148.5619354248047 253.51914978027344 148.03860473632812 253.6258087158203 147.5652618408203 253.83914184570312 C 147.09860229492188 254.05914306640625 146.70193481445312 254.43247985839844 146.37525939941406 254.9591522216797 C 146.04859924316406 255.47914123535156 145.79527282714844 256.1524658203125 145.61526489257812 256.9791564941406 C 145.43527221679688 257.8124694824219 145.33526611328125 258.8291320800781 145.3152618408203 260.0291442871094 C 145.33526611328125 260.98248291015625 145.3986053466797 261.8258056640625 145.50526428222656 262.55914306640625 C 145.61859130859375 263.29248046875 145.7819366455078 263.9191589355469 145.99526977539062 264.43914794921875 L 144.70526123046875 267.17913818359375 C 143.99192810058594 266.44580078125 143.4385986328125 265.4891357421875 143.04527282714844 264.30914306640625 C 142.6519317626953 263.129150390625 142.45526123046875 261.7024841308594 142.45526123046875 260.0291442871094 C 142.45526123046875 258.5758056640625 142.6085968017578 257.29913330078125 142.91526794433594 256.19915771484375 C 143.22193908691406 255.09915161132812 143.65859985351562 254.18247985839844 144.2252655029297 253.4491424560547 C 144.79859924316406 252.70913696289062 145.49526977539062 252.14913940429688 146.3152618408203 251.76914978027344 C 147.13526916503906 251.38914489746094 148.0519256591797 251.1991424560547 149.0652618408203 251.1991424560547 C 150.145263671875 251.1991424560547 151.09193420410156 251.39913940429688 151.9052734375 251.7991485595703 L 150.87525939941406 254.00914001464844 C 150.3619384765625 253.68247985839844 149.7819366455078 253.51914978027344 149.13526916503906 253.51914978027344 M 153.3552703857422 252.80914306640625 C 154.12193298339844 253.52914428710938 154.70526123046875 254.4924774169922 155.1052703857422 255.6991424560547 C 155.50526428222656 256.8991394042969 155.70526123046875 258.34246826171875 155.70526123046875 260.0291442871094 C 155.70526123046875 261.48248291015625 155.5519256591797 262.7624816894531 155.24526977539062 263.869140625 C 154.9385986328125 264.98248291015625 154.49859619140625 265.90582275390625 153.92526245117188 266.63916015625 C 153.3452606201172 267.3724670410156 152.6486053466797 267.9258117675781 151.83526611328125 268.29913330078125 C 151.0219268798828 268.67913818359375 150.09860229492188 268.869140625 149.0652618408203 268.869140625 C 147.95860290527344 268.869140625 146.9752655029297 268.6491394042969 146.11526489257812 268.2091369628906 L 147.17526245117188 265.9791564941406 C 147.65525817871094 266.3724670410156 148.26193237304688 266.56915283203125 148.99526977539062 266.56915283203125 C 149.5752716064453 266.56915283203125 150.1052703857422 266.455810546875 150.58526611328125 266.2291564941406 C 151.05859375 266.0024719238281 151.45860290527344 265.6324768066406 151.78526306152344 265.119140625 C 152.1119384765625 264.5991516113281 152.36526489257812 263.9224853515625 152.54525756835938 263.0891418457031 C 152.7252655029297 262.25579833984375 152.8252716064453 261.2358093261719 152.8452606201172 260.0291442871094 C 152.8252716064453 259.04248046875 152.75526428222656 258.1824645996094 152.63526916503906 257.44915771484375 C 152.50860595703125 256.7158203125 152.32859802246094 256.09246826171875 152.0952606201172 255.5791473388672 C 152.0752716064453 255.55914306640625 152.0652618408203 255.54248046875 152.0652618408203 255.52914428710938 L 153.3552703857422 252.80914306640625 ZM 168.6421661376953 262.4891357421875 L 170.44216918945312 262.4891357421875 L 170.44216918945312 264.7191467285156 L 168.6421661376953 264.7191467285156 L 168.6421661376953 268.7491455078125 L 165.78216552734375 268.7491455078125 L 165.78216552734375 251.47914123535156 L 168.6421661376953 251.47914123535156 L 168.6421661376953 262.4891357421875 M 158.3021697998047 264.7191467285156 L 158.3021697998047 262.4891357421875 L 164.82217407226562 252.879150390625 L 164.82217407226562 256.2291564941406 L 160.81216430664062 262.4891357421875 L 164.82217407226562 262.4891357421875 L 164.82217407226562 264.7191467285156 L 158.3021697998047 264.7191467285156 Z" transform="matrix(3.6204915046691895, -2.24468731880188, 2.24468731880188, 3.6204915046691895, -879.565185546875, -394.2023010253906)" style="fill: rgb(255, 255, 255); white-space: pre; color: rgb(255, 255, 255);"/></svg>