<?xml version="1.0" encoding="utf-8"?>
<!-- Generator: Adobe Illustrator 16.0.0, SVG Export Plug-In . SVG Version: 6.00 Build 0)  -->
<!DOCTYPE svg PUBLIC "-//W3C//DTD SVG 1.1//EN" "http://www.w3.org/Graphics/SVG/1.1/DTD/svg11.dtd">
<svg version="1.1" id="图层_3" xmlns="http://www.w3.org/2000/svg" xmlns:xlink="http://www.w3.org/1999/xlink" x="0px" y="0px"
	 width="192px" height="192px" viewBox="0 0 192 192" enable-background="new 0 0 192 192" xml:space="preserve">
<path fill="#4285F4" d="M160.879,20h-129.5c-6.216,0-11.25,5.035-11.25,11.25v129.5c0,6.216,5.034,11.25,11.25,11.25h129.5
	c6.215,0,11.25-5.034,11.25-11.25V31.25C172.129,25.035,167.094,20,160.879,20z"/>
<path fill="#FFFFFF" d="M101.009,75.299v-7.62c0-2.236,0.307-4.164,0.923-5.792c0.158-0.285,0.261-0.597,0.297-0.923
	c0-0.2-0.71-0.396-2.128-0.603H89.719v14.938h-25v35.682h10.359v-5.49h14.95v26.229h10.979V105.49h15.244v4.577h11.287V75.296
	h-26.529V75.299z M90.028,97.261H75.086V83.852l-0.006-0.005h14.948V97.261z M116.257,97.261h-15.246V83.852h15.246V97.261z"/>
</svg>
