<?xml version="1.0" encoding="utf-8"?>
<!-- Generator: Adobe Illustrator 16.0.0, SVG Export Plug-In . SVG Version: 6.00 Build 0)  -->
<!DOCTYPE svg PUBLIC "-//W3C//DTD SVG 1.1//EN" "http://www.w3.org/Graphics/SVG/1.1/DTD/svg11.dtd">
<svg version="1.1" id="图层_3" xmlns="http://www.w3.org/2000/svg" xmlns:xlink="http://www.w3.org/1999/xlink" x="0px" y="0px"
	 width="192px" height="192px" viewBox="0 0 192 192" enable-background="new 0 0 192 192" xml:space="preserve">
<path fill="#3C8CEA" d="M117.625,8.125h-74c-6.216,0-11.25,5.034-11.25,11.25v153.25c0,6.215,5.034,11.25,11.25,11.25h104.75
	c6.215,0,11.25-5.035,11.25-11.25v-122.5L117.625,8.125z"/>
<polygon fill="#2D6FE4" points="119.607,48 159.167,84 159.625,50.125 "/>
<path fill="#A5C5F9" d="M117.625,8.125v35c0,3.866,3.134,7,7,7h35L117.625,8.125z"/>
<line fill="none" x1="18.435" y1="73.155" x2="177.904" y2="73.155"/>
<path fill="#FFFFFF" d="M74.468,96v6.465h47.404V96H74.468z M74.468,108.929v6.464h47.404v-6.464H74.468z M74.468,121.857v6.464
	h47.404v-6.464H74.468z M74.468,134.786v6.464h34.477v-6.464H74.468z"/>
</svg>
