<?xml version="1.0" encoding="utf-8"?>
<!-- Generator: Adobe Illustrator 16.0.0, SVG Export Plug-In . SVG Version: 6.00 Build 0)  -->
<!DOCTYPE svg PUBLIC "-//W3C//DTD SVG 1.1//EN" "http://www.w3.org/Graphics/SVG/1.1/DTD/svg11.dtd">
<svg version="1.1" id="图层_3" xmlns="http://www.w3.org/2000/svg" xmlns:xlink="http://www.w3.org/1999/xlink" x="0px" y="0px"
	 width="192px" height="192px" viewBox="0 0 192 192" enable-background="new 0 0 192 192" xml:space="preserve">
<path fill="#FBBC05" d="M160.536,20H31.463c-6.195,0-11.213,5.02-11.213,11.213v129.073c0,6.195,5.018,11.213,11.213,11.213h129.073
	c6.196,0,11.213-5.018,11.213-11.213V31.213C171.749,25.02,166.732,20,160.536,20z"/>
<path fill="#34A853" d="M157.351,20H31.213C25.018,20,20,25.019,20,31.213v126.452L157.351,20z"/>
<polygon fill="#4285F4" points="96.667,112.334 36.667,172 156.333,172 "/>
<polygon fill="#C9C3B8" points="112,95.75 171.667,35.333 172,155.334 "/>
<path fill="#EAEAEA" d="M171.749,160.286v-5.201L112,95.75l-15.333,16.584l59.165,59.165h4.704
	C166.732,171.499,171.749,166.481,171.749,160.286z"/>
<g>
	<path fill="#EA4335" d="M150.334,12.033c-16.612,0-30.087,13.476-30.087,30.089c0,22.565,30.087,55.877,30.087,55.877
		s30.086-33.312,30.086-55.877C180.42,25.509,166.947,12.033,150.334,12.033z"/>
	<path fill="#FFFFFF" d="M150.334,52.867c-5.932,0-10.747-4.813-10.747-10.745c0-5.933,4.815-10.746,10.747-10.746
		s10.748,4.813,10.748,10.746C161.082,48.055,156.266,52.867,150.334,52.867z"/>
</g>
</svg>
