<?xml version="1.0" encoding="utf-8"?>
<svg id="master-artboard" viewBox="0 0 400 400" version="1.1" xmlns="http://www.w3.org/2000/svg" x="0px" y="0px" style="enable-background:new 0 0 1400 980;" width="400px" height="400px"><rect id="ee-background" x="0" y="0" width="400" height="400" style="fill: rgb(255, 193, 7); fill-opacity: 1; pointer-events: none;"/><g transform="matrix(2.107407721082109, -2.0762104459271176, 2.0762104459271176, 2.107407721082109, -222.97600322708035, 410.31915191942295)"><g id="g-1" transform="matrix(1, 0, 0, 1, 0, 0)">
	<g id="g-2">
		<path class="st0" d="M58,49h100v100H58V49z" style="fill: rgb(33, 150, 243);"/>
	</g>
</g></g><g transform="matrix(2.3070144653320312, 2.293538808822632, -2.293538808822632, 2.3070144653320312, -39.4249771366882, -285.374357092209)"><g id="g-5" transform="matrix(1, 0, 0, 1, 0, 0)">
	<g id="g-6">
		<path class="st0" d="M58,49h100v100H58V49z" style="fill: rgb(76, 175, 80);"/>
	</g>
</g></g><path d="M 186.8688507080078 270.1664581298828 C 186.86885135853808 270.1664583170237 318.4948417247766 395.89874244434145 318.4948425292969 395.89874267578125 C 341.3969787672794 421.9737385367549 395.6115928693557 395.5274867568862 361.7153015136719 354.6428527832031 L 228.124755859375 228.9105682373047 C 268.9222523664738 175.97089002768539 182.91292977503454 67.43864928939135 116.1444320678711 120.8593635559082 C 136.51216616818013 140.44822692871094 172.48055097885435 171.85221577943733 151.3642578125 195.5478515625 C 139.2688446044922 209.12071228027344 125.87980581402672 213.41165052519946 72.92393493652344 168.00897216796875 C 25.255022048950195 217.1275482708737 131.859130859375 319.0694752453747 186.8688507080078 270.1664581298828 Z" style="fill: rgb(255, 255, 255); fill-opacity: 0; stroke: rgb(255, 255, 255); stroke-opacity: 1; stroke-width: 17; paint-order: fill;" transform="matrix(1, 0, 0, 1, -7.858273672027735, -43.220486475067105)"/><path d="M 304.74285888671875 148.36329650878906" style="fill: rgb(255, 255, 255); fill-opacity: 0; stroke: rgb(255, 255, 255); stroke-opacity: 1; stroke-width: 17; paint-order: stroke;" transform="matrix(1, 0, 0, 1, -106.0866242647171, 23.574783325195312)"/><path d="M 194.72711181640625 166.04440307617188" style="fill: rgb(255, 255, 255); fill-opacity: 0; stroke: rgb(255, 255, 255); stroke-opacity: 1; stroke-width: 17; paint-order: stroke;" transform="matrix(0.7071048021316528, -0.707104504108429, 0.707104504108429, 0.7071048021316528, -166.46359252929688, 209.9003448486328)"/></svg>