<?xml version="1.0" encoding="utf-8"?>
<!-- Generator: Adobe Illustrator 19.0.0, SVG Export Plug-In . SVG Version: 6.00 Build 0)  -->
<svg version="1.1" id="图形" xmlns="http://www.w3.org/2000/svg" xmlns:xlink="http://www.w3.org/1999/xlink" x="0px" y="0px"
	 viewBox="15.167 -16.333 1000.636 1000.678" enable-background="new 15.167 -16.333 1000.636 1000.678" xml:space="preserve">
<rect x="15.167" y="-16.333" display="none" fill-rule="evenodd" clip-rule="evenodd" fill="#03C7DF" width="1000.636" height="1000.678"/>
<circle display="none" fill="none" stroke="#000000" cx="515.506" cy="484.006" r="500.339"/>
<g>
	<path fill-rule="evenodd" clip-rule="evenodd" d="M228.949,849.539c-36.834,0-64.82-13.339-78.801-37.557
		c-13.192-22.848-10.368-49.957,8.632-82.881c0.312-0.515,2.475-3.734,2.879-4.301l240.225-335.851V134.444
		c0-14.77,4.314-15.972,9.527-15.972h218.38c3.177,0,11.615,0,11.615,15.972v261.886l227.425,328.131
		c0.078,0.108,0.156,0.214,0.235,0.315c17.494,30.372,19.277,62.164,4.844,87.16c-13.791,23.897-42.843,37.603-79.703,37.603
		L228.949,849.539L228.949,849.539L228.949,849.539z M435.655,394.273c0,1.344-2.515,4.399-4.018,6.226
		c-0.942,1.143-1.915,2.326-2.751,3.521L186.054,743.46l-0.157,0.278c-11.357,20.098-13.729,38.811-6.506,51.343
		c7.583,13.147,25.645,20.685,49.558,20.685h565.259c23.869,0,41.922-7.554,49.535-20.724c7.236-12.523,4.867-31.207-6.498-51.258
		l-0.112-0.198L608.695,403.995c-1.133-1.603-1.151-3.907-1.087-7.532c0.014-0.726,0.026-1.457,0.026-2.19V152.243h-171.98
		L435.655,394.273L435.655,394.273L435.655,394.273z"/>
	<path fill-rule="evenodd" clip-rule="evenodd" d="M653.803,600.585c-31.423,0-71.608-10.472-127.065-43.615
		c-94.024-56.159-233.797,20.962-235.204,21.745c-5.547,3.113-12.482,1.128-15.561-4.374c-3.092-5.517-1.128-12.481,4.377-15.56
		c6.193-3.484,152.867-84.324,258.112-21.434c98.098,58.617,140.382,40.42,177.722,24.358l8.247-3.517
		c5.815-2.401,12.527,0.332,14.947,6.172c2.422,5.827-0.345,12.515-6.173,14.947l-7.992,3.394
		C705.6,591.138,683.653,600.585,653.803,600.585L653.803,600.585 M653.803,600.585"/>
	<path fill-rule="evenodd" clip-rule="evenodd" d="M653.804,594.609c-35.285,0-75.846-13.99-124-42.769
		c-23.68-14.143-52.114-21.314-84.516-21.314c-78.512,0-155.888,42.539-156.659,42.969c-0.858,0.481-1.76,0.719-2.698,0.719
		c-1.962,0-3.781-1.07-4.745-2.791c-0.716-1.278-0.892-2.753-0.497-4.154c0.394-1.399,1.31-2.56,2.578-3.27
		c3.245-1.826,80.114-44.55,161.593-44.55c34.502,0,64.963,7.749,90.537,23.03c46.259,27.641,84.906,41.078,118.151,41.078
		c26.966,0,47.165-8.69,64.986-16.356l8.244-3.515c0.606-0.25,1.31-0.39,2.026-0.39c2.227,0,4.212,1.318,5.056,3.355
		c1.154,2.779-0.171,5.982-2.955,7.143l-8.025,3.406C703.886,585.37,682.411,594.609,653.804,594.609L653.804,594.609z"/>
	<path fill-rule="evenodd" clip-rule="evenodd" d="M349.836,780.176c-34.482,0-62.538-28.05-62.538-62.536
		c0-34.478,28.055-62.533,62.538-62.533c34.485,0,62.54,28.055,62.54,62.533C412.376,752.126,384.321,780.176,349.836,780.176
		L349.836,780.176 M349.836,677.97c-21.878,0-39.675,17.792-39.675,39.674c0,21.878,17.797,39.669,39.675,39.669
		c21.885,0,39.678-17.791,39.678-39.669C389.514,695.762,371.721,677.97,349.836,677.97L349.836,677.97 M349.836,677.97"/>
	<path fill-rule="evenodd" clip-rule="evenodd" d="M349.836,774.2c-31.187,0-56.56-25.373-56.56-56.56
		c0-31.184,25.373-56.556,56.56-56.556c31.19,0,56.564,25.371,56.564,56.556C406.4,748.826,381.025,774.2,349.836,774.2
		L349.836,774.2z M349.836,671.993c-25.172,0-45.651,20.479-45.651,45.652c0,25.169,20.479,45.645,45.651,45.645
		c25.173,0,45.655-20.477,45.655-45.645C395.49,692.472,375.009,671.993,349.836,671.993L349.836,671.993z"/>
	<path fill-rule="evenodd" clip-rule="evenodd" d="M678.472,780.176c-29.745,0-53.959-24.213-53.959-53.959
		c0-29.751,24.213-53.963,53.959-53.963c29.751,0,53.963,24.213,53.963,53.963C732.436,755.963,708.223,780.176,678.472,780.176
		L678.472,780.176 M678.472,695.116c-17.145,0-31.097,13.955-31.097,31.101c0,17.147,13.952,31.097,31.097,31.097
		c17.147,0,31.102-13.95,31.102-31.097C709.573,709.071,695.619,695.116,678.472,695.116L678.472,695.116 M678.472,695.116"/>
	<path fill-rule="evenodd" clip-rule="evenodd" d="M678.471,774.2c-26.457,0-47.982-21.525-47.982-47.983
		c0-26.46,21.525-47.987,47.982-47.987c26.461,0,47.988,21.527,47.988,47.987C726.46,752.674,704.932,774.2,678.471,774.2
		L678.471,774.2z M678.471,689.141c-20.443,0-37.073,16.632-37.073,37.076c0,20.443,16.631,37.072,37.073,37.072
		c20.446,0,37.079-16.631,37.079-37.072C715.55,705.773,698.918,689.141,678.471,689.141L678.471,689.141z"/>
	<path fill-rule="evenodd" clip-rule="evenodd" d="M499.022,684.167c-25.353,0-45.97-20.618-45.97-45.958
		c0-25.358,20.617-45.974,45.97-45.974c25.34,0,45.958,20.617,45.958,45.974C544.98,663.549,524.362,684.167,499.022,684.167
		L499.022,684.167 M499.022,615.095c-12.737,0-23.109,10.368-23.109,23.113c0,12.736,10.373,23.097,23.109,23.097
		c12.736,0,23.097-10.361,23.097-23.097C522.117,625.464,511.758,615.095,499.022,615.095L499.022,615.095 M499.022,615.095"/>
	<path fill-rule="evenodd" clip-rule="evenodd" d="M499.022,678.19c-22.053,0-39.994-17.935-39.994-39.982
		c0-22.056,17.941-39.999,39.994-39.999c22.047,0,39.982,17.943,39.982,39.999C539.003,660.255,521.068,678.19,499.022,678.19
		L499.022,678.19z M499.022,609.119c-16.038,0-29.086,13.049-29.086,29.088c0,16.03,13.048,29.073,29.086,29.073
		c16.03,0,29.073-13.042,29.073-29.073C528.094,622.169,515.052,609.119,499.022,609.119L499.022,609.119z"/>
	<path fill-rule="evenodd" clip-rule="evenodd" d="M564.716,328.763c-6.321,0-11.43-5.109-11.43-11.43V191.594
		c0-6.317,5.109-11.43,11.43-11.43c6.317,0,11.426,5.113,11.426,11.43v125.739C576.142,323.651,571.034,328.763,564.716,328.763
		L564.716,328.763 M564.716,328.763"/>
	<path fill-rule="evenodd" clip-rule="evenodd" d="M564.715,322.788c-3.007,0-5.455-2.447-5.455-5.455V191.594
		c0-3.007,2.448-5.455,5.455-5.455c3.005,0,5.452,2.447,5.452,5.455v125.739C570.167,320.341,567.721,322.788,564.715,322.788
		L564.715,322.788z"/>
	<path fill-rule="evenodd" clip-rule="evenodd" d="M564.716,385.922c-6.321,0-11.43-5.11-11.43-11.431v-11.43
		c0-6.317,5.109-11.435,11.43-11.435c6.317,0,11.426,5.118,11.426,11.435v11.43C576.142,380.812,571.034,385.922,564.716,385.922
		L564.716,385.922 M564.716,385.922"/>
	<path fill-rule="evenodd" clip-rule="evenodd" d="M564.715,379.946c-3.007,0-5.455-2.447-5.455-5.454v-11.431
		c0-3.011,2.448-5.458,5.455-5.458c3.005,0,5.452,2.447,5.452,5.458v11.431C570.167,377.5,567.721,379.946,564.715,379.946
		L564.715,379.946z"/>
</g>
</svg>
