<?xml version="1.0" encoding="utf-8"?>
<!-- Generator: Adobe Illustrator 16.0.0, SVG Export Plug-In . SVG Version: 6.00 Build 0)  -->
<!DOCTYPE svg PUBLIC "-//W3C//DTD SVG 1.1//EN" "http://www.w3.org/Graphics/SVG/1.1/DTD/svg11.dtd">
<svg version="1.1" id="图层_3" xmlns="http://www.w3.org/2000/svg" xmlns:xlink="http://www.w3.org/1999/xlink" x="0px" y="0px"
	 width="192px" height="192px" viewBox="0 0 192 192" enable-background="new 0 0 192 192" xml:space="preserve">
<path fill="#849AA5" d="M20.034,31.25V96h75.933V20H31.284C25.069,20,20.034,25.035,20.034,31.25z"/>
<path fill="#6A8692" d="M171.966,96V30.032C171.358,24.391,166.589,20,160.784,20H95.967v76H171.966z"/>
<path fill="#FBBC05" d="M171.966,161.969V96H95.967v76h64.817C166.589,172,171.358,167.609,171.966,161.969z"/>
<path fill="#4C6067" d="M20.034,96v64.75c0,6.216,5.035,11.25,11.25,11.25h64.683V96H20.034z"/>
<g>
	<path fill="#FFFFFF" d="M57.981,113.965c-11.059,0-20.016,8.977-20.016,20.035s8.957,20.035,20.016,20.035
		c11.078,0,20.055-8.977,20.055-20.035S69.059,113.965,57.981,113.965z M58,150.028c-8.855,0-16.028-7.173-16.028-16.028
		S49.145,117.973,58,117.973S74.029,125.145,74.029,134S66.856,150.028,58,150.028z"/>
	<path fill="#FFFFFF" d="M59.002,123.982h-3.005v12.021l10.519,6.313l1.501-2.466l-9.015-5.349V123.982z"/>
</g>
<path fill="#FFFFFF" d="M133.966,40.407c4.294,0,7.771,3.478,7.771,7.771c0,1.417-0.369,2.738-1.049,3.885h4.934
	c1.845,0,3.398,1.301,3.787,3.03c3.904,15.559,3.982,15.966,3.982,16.394c0,2.136-1.749,3.885-3.885,3.885h-31.079
	c-2.136,0-3.884-1.749-3.884-3.885c0-0.428,0.077-0.835,3.981-16.394c0.388-1.729,1.942-3.03,3.788-3.03h4.934
	c-0.68-1.146-1.049-2.467-1.049-3.885C126.197,43.884,129.674,40.407,133.966,40.407 M133.966,44.292
	c-2.137,0-3.884,1.749-3.884,3.885s1.747,3.885,3.884,3.885s3.886-1.749,3.886-3.885S136.103,44.292,133.966,44.292z"/>
<path fill="#FFFFFF" d="M37.965,71.501l3.277-3.259l2.63,2.592l1.963-1.944l-2.63-2.611l2.63-2.629l4.574,4.592l1.963-1.963
	l-4.574-4.592l2.611-2.611l2.629,2.611l1.963-1.963l-2.629-2.61l2.629-2.629l4.574,4.592l1.962-1.962l-4.573-4.593l2.611-2.61
	l2.61,2.61l1.982-1.962l-2.63-2.611l2.63-2.629l4.555,4.593l1.981-1.963l-4.574-4.592l3.259-3.278l7.871,7.87L45.835,79.371
	L37.965,71.501L37.965,71.501z"/>
<path fill="#FFFFFF" d="M138.664,118.031v9.395h-24.422v3.756h39.448L138.664,118.031z M129.269,149.968v-9.394h24.422v-3.757
	h-39.448L129.269,149.968z"/>
</svg>
