<svg width="120" height="120" viewBox="0 0 120 120" fill="none" xmlns="http://www.w3.org/2000/svg">
<g clip-path="url(#clip0_112_1006)">
<rect width="120" height="120" fill="url(#paint0_linear_112_1006)"/>
<path d="M35.5625 32.0003L32 35.5628L39.8375 46.5388C40.1674 47.001 40.6031 47.3777 41.1082 47.6373C41.6132 47.897 42.173 48.0321 42.7409 48.0315H42.9903C43.4587 48.0311 43.9226 48.1231 44.3554 48.3022C44.7882 48.4814 45.1814 48.7441 45.5126 49.0753L55.0423 58.605L45.7192 68.0599C44.1246 67.5905 42.4425 67.4991 40.8065 67.793C39.1704 68.087 37.6254 68.7581 36.2939 69.7532C34.9624 70.7483 33.8811 72.0399 33.1357 73.5257C32.3904 75.0115 32.0015 76.6505 32 78.3128C32.0021 79.8444 32.3335 81.3577 32.9715 82.7501C33.6096 84.1426 34.5395 85.3816 35.6983 86.3832C36.857 87.3849 38.2175 88.1258 39.6876 88.5557C41.1577 88.9856 42.703 89.0945 44.2188 88.8751C45.7347 88.6556 47.1857 88.1129 48.4734 87.2837C49.7612 86.4545 50.8558 85.3582 51.6828 84.069C52.5099 82.7799 53.0503 81.328 53.2672 79.8118C53.4842 78.2956 53.3727 76.7504 52.9404 75.2811L62.3952 65.958L65.8438 69.4065L64.7572 72.6626C64.5484 73.2902 64.5185 73.9636 64.6707 74.6073C64.823 75.2509 65.1515 75.8395 65.6193 76.3071L77.2687 87.9564C77.5988 88.2884 77.9912 88.5519 78.4235 88.7316C78.8557 88.9114 79.3192 89.0039 79.7874 89.0039C80.2555 89.0039 80.719 88.9114 81.1513 88.7316C81.5835 88.5519 81.976 88.2884 82.3061 87.9564L87.9562 82.3063C88.2882 81.9762 88.5516 81.5838 88.7314 81.1515C88.9111 80.7193 89.0037 80.2558 89.0037 79.7876C89.0037 79.3195 88.9111 78.856 88.7314 78.4237C88.5516 77.9915 88.2882 77.599 87.9562 77.2689L76.3068 65.6196C75.8393 65.1517 75.2507 64.8232 74.607 64.671C73.9633 64.5187 73.29 64.5487 72.6624 64.7574L69.4063 65.844L65.9862 62.424L75.5338 53.0083C77.1176 53.4311 78.7774 53.4845 80.3851 53.1644C81.9929 52.8443 83.5056 52.1592 84.8067 51.1621C86.1079 50.1649 87.1626 48.8822 87.8896 47.4129C88.6167 45.9437 88.9965 44.327 89 42.6878C89 41.7294 88.8753 40.7996 88.6366 39.9197L81.0129 47.547L74.75 46.2503L73.4532 39.9909L81.0806 32.3636C79.2662 31.8758 77.3552 31.8749 75.5404 32.361C73.7255 32.8471 72.0708 33.8031 70.7432 35.1325C69.4156 36.462 68.4619 38.1179 67.9782 39.9334C67.4946 41.7489 67.4981 43.6599 67.9884 45.4736L58.5834 55.014L49.0751 45.5128C48.4069 44.8449 48.0315 43.9389 48.0312 42.9941V42.7412C48.0313 42.1739 47.8959 41.6148 47.6363 41.1104C47.3766 40.606 47.0003 40.1709 46.5386 39.8413L35.5625 32.0003ZM69.9264 69.9266C70.0918 69.7607 70.2884 69.6291 70.5048 69.5393C70.7212 69.4495 70.9532 69.4033 71.1875 69.4033C71.4218 69.4033 71.6538 69.4495 71.8702 69.5393C72.0866 69.6291 72.2832 69.7607 72.4486 69.9266L82.8297 80.3113C83.1542 80.6473 83.3338 81.0972 83.3297 81.5642C83.3256 82.0313 83.1383 82.478 82.808 82.8083C82.4778 83.1386 82.031 83.3259 81.564 83.33C81.097 83.334 80.647 83.1545 80.3111 82.83L69.9264 72.4489C69.7605 72.2834 69.6289 72.0869 69.5391 71.8704C69.4493 71.654 69.4031 71.4221 69.4031 71.1878C69.4031 70.9535 69.4493 70.7215 69.5391 70.5051C69.6289 70.2887 69.7605 70.0921 69.9264 69.9266ZM42.6875 71.1878L44.3654 72.0499L46.25 72.1425L47.2724 73.7278L48.8577 74.7503L48.9504 76.6348L49.8125 78.3128L48.9504 79.9907L48.8577 81.8753L47.2724 82.8977L46.25 84.483L44.3654 84.5756L42.6875 85.4378L41.0096 84.5756L39.125 84.483L38.1026 82.8977L36.5173 81.8753L36.4246 79.9907L35.5625 78.3128L36.4246 76.6348L36.5173 74.7503L38.1026 73.7278L39.125 72.1425L41.0096 72.0499L42.6875 71.1878Z" fill="url(#paint1_linear_112_1006)"/>
</g>
<defs>
<linearGradient id="paint0_linear_112_1006" x1="-6" y1="-1.78635e-06" x2="127.2" y2="127.2" gradientUnits="userSpaceOnUse">
<stop stop-color="#FFCA3D"/>
<stop offset="0.473958" stop-color="#63C862"/>
<stop offset="1" stop-color="#4EBFFE"/>
</linearGradient>
<linearGradient id="paint1_linear_112_1006" x1="60.5018" y1="31.9971" x2="60.5018" y2="89.0039" gradientUnits="userSpaceOnUse">
<stop stop-color="white"/>
<stop offset="1" stop-color="white" stop-opacity="0.82"/>
</linearGradient>
<clipPath id="clip0_112_1006">
<rect width="120" height="120" fill="white"/>
</clipPath>
</defs>
</svg>
