<svg width="100" height="100" viewBox="0 0 100 100" fill="none" xmlns="http://www.w3.org/2000/svg">
<g clip-path="url(#clip0_61_124)">
<rect width="100" height="100" rx="24" fill="url(#paint0_linear_61_124)"/>
<path d="M25.5625 22.0003L22 25.5628L29.8375 36.5388C30.1674 37.001 30.6031 37.3777 31.1082 37.6373C31.6132 37.897 32.173 38.0321 32.7409 38.0315H32.9903C33.4587 38.0311 33.9226 38.1231 34.3554 38.3022C34.7882 38.4814 35.1814 38.7441 35.5126 39.0753L45.0422 48.605L35.7192 58.0599C34.1246 57.5905 32.4425 57.4991 30.8065 57.793C29.1704 58.087 27.6254 58.7581 26.2939 59.7532C24.9624 60.7483 23.8811 62.0399 23.1357 63.5257C22.3904 65.0115 22.0015 66.6505 22 68.3128C22.0021 69.8444 22.3335 71.3577 22.9715 72.7501C23.6096 74.1426 24.5395 75.3816 25.6983 76.3832C26.857 77.3849 28.2175 78.1258 29.6876 78.5557C31.1577 78.9856 32.703 79.0945 34.2188 78.8751C35.7347 78.6556 37.1857 78.1129 38.4734 77.2837C39.7612 76.4545 40.8558 75.3582 41.6828 74.069C42.5099 72.7799 43.0503 71.328 43.2672 69.8118C43.4842 68.2956 43.3727 66.7504 42.9404 65.2811L52.3952 55.958L55.8438 59.4065L54.7572 62.6626C54.5484 63.2902 54.5185 63.9636 54.6707 64.6073C54.823 65.2509 55.1515 65.8395 55.6193 66.3071L67.2687 77.9564C67.5988 78.2884 67.9912 78.5519 68.4235 78.7316C68.8557 78.9114 69.3192 79.0039 69.7874 79.0039C70.2555 79.0039 70.719 78.9114 71.1513 78.7316C71.5835 78.5519 71.976 78.2884 72.3061 77.9564L77.9562 72.3063C78.2882 71.9762 78.5516 71.5838 78.7314 71.1515C78.9111 70.7193 79.0037 70.2558 79.0037 69.7876C79.0037 69.3195 78.9111 68.856 78.7314 68.4237C78.5516 67.9915 78.2882 67.599 77.9562 67.2689L66.3068 55.6196C65.8393 55.1517 65.2507 54.8232 64.607 54.671C63.9633 54.5187 63.29 54.5487 62.6624 54.7574L59.4062 55.844L55.9862 52.424L65.5337 43.0083C67.1176 43.4311 68.7774 43.4845 70.3851 43.1644C71.9929 42.8443 73.5056 42.1592 74.8067 41.1621C76.1079 40.1649 77.1626 38.8822 77.8896 37.4129C78.6167 35.9437 78.9965 34.327 79 32.6878C79 31.7294 78.8753 30.7996 78.6366 29.9197L71.0129 37.547L64.75 36.2503L63.4533 29.9909L71.0806 22.3636C69.2662 21.8758 67.3552 21.8749 65.5404 22.361C63.7255 22.8471 62.0708 23.8031 60.7432 25.1325C59.4156 26.462 58.4619 28.1179 57.9782 29.9334C57.4946 31.7489 57.4981 33.6599 57.9884 35.4736L48.5834 45.014L39.0751 35.5128C38.4069 34.8449 38.0315 33.9389 38.0312 32.9941V32.7412C38.0313 32.1739 37.8959 31.6148 37.6363 31.1104C37.3766 30.606 37.0003 30.1709 36.5386 29.8413L25.5625 22.0003ZM59.9264 59.9266C60.0918 59.7607 60.2884 59.6291 60.5048 59.5393C60.7212 59.4495 60.9532 59.4033 61.1875 59.4033C61.4218 59.4033 61.6538 59.4495 61.8702 59.5393C62.0866 59.6291 62.2832 59.7607 62.4486 59.9266L72.8297 70.3113C73.1542 70.6473 73.3338 71.0972 73.3297 71.5643C73.3256 72.0313 73.1383 72.4781 72.808 72.8083C72.4778 73.1386 72.031 73.3259 71.564 73.33C71.097 73.334 70.647 73.1545 70.3111 72.83L59.9264 62.4489C59.7605 62.2834 59.6289 62.0869 59.5391 61.8704C59.4493 61.654 59.4031 61.4221 59.4031 61.1878C59.4031 60.9535 59.4493 60.7215 59.5391 60.5051C59.6289 60.2887 59.7605 60.0921 59.9264 59.9266ZM32.6875 61.1878L34.3654 62.0499L36.25 62.1425L37.2724 63.7278L38.8577 64.7503L38.9504 66.6348L39.8125 68.3128L38.9504 69.9907L38.8577 71.8753L37.2724 72.8977L36.25 74.483L34.3654 74.5756L32.6875 75.4378L31.0096 74.5756L29.125 74.483L28.1026 72.8977L26.5173 71.8753L26.4246 69.9907L25.5625 68.3128L26.4246 66.6348L26.5173 64.7503L28.1026 63.7278L29.125 62.1425L31.0096 62.0499L32.6875 61.1878Z" fill="url(#paint1_linear_61_124)"/>
</g>
<defs>
<linearGradient id="paint0_linear_61_124" x1="-5" y1="-1.48863e-06" x2="106" y2="106" gradientUnits="userSpaceOnUse">
<stop stop-color="#FFCA3D"/>
<stop offset="0.473958" stop-color="#63C862"/>
<stop offset="1" stop-color="#4EBFFE"/>
</linearGradient>
<linearGradient id="paint1_linear_61_124" x1="50.5018" y1="21.9971" x2="50.5018" y2="79.0039" gradientUnits="userSpaceOnUse">
<stop stop-color="white"/>
<stop offset="1" stop-color="white" stop-opacity="0.82"/>
</linearGradient>
<clipPath id="clip0_61_124">
<rect width="100" height="100" rx="24" fill="white"/>
</clipPath>
</defs>
</svg>
